<mxfile host="app.diagrams.net" modified="2022-11-12T00:49:26.863Z" agent="5.0 (Windows)" etag="TlwrEq00nsbBy2UpwNDY" version="20.5.3" type="github">
  <diagram name="Page-1" id="f1b7ffb7-ca1e-a977-7cf5-a751b3c06c05">
    <mxGraphModel dx="964" dy="3084" grid="1" gridSize="10" guides="1" tooltips="1" connect="1" arrows="1" fold="1" page="1" pageScale="1" pageWidth="826" pageHeight="1169" background="none" math="0" shadow="0">
      <root>
        <mxCell id="0" />
        <mxCell id="1" parent="0" />
        <mxCell id="hYHCOX4SdHEW-8E3aXi9-61" value="" style="strokeWidth=1;shadow=0;dashed=0;align=center;html=1;shape=mxgraph.mockup.containers.browserWindow;rSize=0;strokeColor=#666666;strokeColor2=#008cff;strokeColor3=#c4c4c4;mainText=,;recursiveResize=0;movable=0;" parent="1" vertex="1">
          <mxGeometry x="3" y="-2330" width="820" height="1400" as="geometry" />
        </mxCell>
        <mxCell id="hYHCOX4SdHEW-8E3aXi9-62" value="Page 1" style="strokeWidth=1;shadow=0;dashed=0;align=center;html=1;shape=mxgraph.mockup.containers.anchor;fontSize=17;fontColor=#666666;align=left;" parent="hYHCOX4SdHEW-8E3aXi9-61" vertex="1">
          <mxGeometry x="60" y="12" width="110" height="26" as="geometry" />
        </mxCell>
        <mxCell id="hYHCOX4SdHEW-8E3aXi9-63" value="www.theMelee.com" style="strokeWidth=1;shadow=0;dashed=0;align=center;html=1;shape=mxgraph.mockup.containers.anchor;rSize=0;fontSize=17;fontColor=#666666;align=left;" parent="hYHCOX4SdHEW-8E3aXi9-61" vertex="1">
          <mxGeometry x="130" y="60" width="250" height="26" as="geometry" />
        </mxCell>
        <mxCell id="hYHCOX4SdHEW-8E3aXi9-80" value="&lt;div style=&quot;font-size: 18px;&quot; align=&quot;left&quot;&gt;basic discription of the lore of the book and the consept of the game&lt;br&gt;&lt;/div&gt;" style="rounded=0;whiteSpace=wrap;html=1;fontSize=28;fillColor=none;" parent="hYHCOX4SdHEW-8E3aXi9-61" vertex="1">
          <mxGeometry x="210" y="590" width="400" height="260" as="geometry" />
        </mxCell>
        <mxCell id="hYHCOX4SdHEW-8E3aXi9-82" value="Equations button/img" style="label;whiteSpace=wrap;html=1;image=img/clipart/Gear_128x128.png;fontSize=18;fillColor=none;" parent="hYHCOX4SdHEW-8E3aXi9-61" vertex="1">
          <mxGeometry x="525" y="1050" width="212" height="130" as="geometry" />
        </mxCell>
        <mxCell id="hYHCOX4SdHEW-8E3aXi9-77" value="" style="shape=image;html=1;verticalLabelPosition=bottom;verticalAlign=top;imageAspect=0;image=img/clipart/Gear_128x128.png" parent="hYHCOX4SdHEW-8E3aXi9-61" vertex="1">
          <mxGeometry y="180" width="820" height="350" as="geometry" />
        </mxCell>
        <mxCell id="hYHCOX4SdHEW-8E3aXi9-64" value="" style="rounded=0;whiteSpace=wrap;html=1;" parent="hYHCOX4SdHEW-8E3aXi9-61" vertex="1">
          <mxGeometry x="3" y="110" width="815" height="70" as="geometry" />
        </mxCell>
        <mxCell id="hYHCOX4SdHEW-8E3aXi9-65" value="" style="shape=image;html=1;verticalLabelPosition=bottom;verticalAlign=top;imageAspect=0;image=img/clipart/Gear_128x128.png" parent="hYHCOX4SdHEW-8E3aXi9-61" vertex="1">
          <mxGeometry x="3" y="110" width="70" height="70" as="geometry" />
        </mxCell>
        <mxCell id="hYHCOX4SdHEW-8E3aXi9-78" value="&lt;u&gt;&lt;b&gt;&lt;font style=&quot;font-size: 28px;&quot;&gt;Title&lt;/font&gt;&lt;/b&gt;&lt;/u&gt;" style="rounded=0;whiteSpace=wrap;html=1;fillColor=none;strokeColor=none;" parent="hYHCOX4SdHEW-8E3aXi9-61" vertex="1">
          <mxGeometry x="295" y="325" width="230" height="60" as="geometry" />
        </mxCell>
        <mxCell id="hYHCOX4SdHEW-8E3aXi9-71" value="&lt;div&gt;Home&lt;/div&gt;" style="rounded=1;whiteSpace=wrap;html=1;" parent="1" vertex="1">
          <mxGeometry x="110" y="-2220" width="90" height="70" as="geometry" />
        </mxCell>
        <mxCell id="hYHCOX4SdHEW-8E3aXi9-72" value="Equations" style="rounded=1;whiteSpace=wrap;html=1;" parent="1" vertex="1">
          <mxGeometry x="280" y="-2220" width="90" height="70" as="geometry" />
        </mxCell>
        <mxCell id="hYHCOX4SdHEW-8E3aXi9-73" value="Mechanics" style="rounded=1;whiteSpace=wrap;html=1;" parent="1" vertex="1">
          <mxGeometry x="450" y="-2220" width="90" height="70" as="geometry" />
        </mxCell>
        <mxCell id="hYHCOX4SdHEW-8E3aXi9-74" value="&lt;div&gt;Contact Me&lt;/div&gt;" style="rounded=1;whiteSpace=wrap;html=1;" parent="1" vertex="1">
          <mxGeometry x="620" y="-2220" width="90" height="70" as="geometry" />
        </mxCell>
        <mxCell id="hYHCOX4SdHEW-8E3aXi9-83" value="Equations button/img" style="label;whiteSpace=wrap;html=1;image=img/clipart/Gear_128x128.png;fontSize=18;fillColor=none;" parent="1" vertex="1">
          <mxGeometry x="538" y="-1270" width="212" height="130" as="geometry" />
        </mxCell>
      </root>
    </mxGraphModel>
  </diagram>
</mxfile>
